<?xml version="1.0" encoding="utf-8"?>
<!-- Generator: Adobe Illustrator 22.0.1, SVG Export Plug-In . SVG Version: 6.00 Build 0)  -->
<svg version="1.1" id="Layer_1" xmlns="http://www.w3.org/2000/svg" xmlns:xlink="http://www.w3.org/1999/xlink" x="0px" y="0px"
	 viewBox="0 0 560 288" style="enable-background:new 0 0 560 288;" xml:space="preserve">
<style type="text/css">
	.st0{fill:#BCCD30;}
	.st1{fill:#FFFFFF;}
	.st2{fill:#659357;}
	.st3{fill:#FFFFFF;stroke:#000000;stroke-miterlimit:10;}
</style>
<g>
	<path class="st0" d="M231,42.5c-5.9-0.2-11.9-0.5-17.8-0.7c-1.8-0.1-3.8-0.1-5.3,0.9c-1.2,0.8-1.9,2.2-2.5,3.5
		c-5.1,10.3-10.2,20.6-13.7,31.6c-1.7,5.2-3,10.7-2.5,16.2c0.4,4.6,1.9,9,3.5,13.3c1.5,4.2,3,8.5,5.5,12.2
		c5.5,8.4,15.3,13.2,25.1,14.9c9.9,1.8,20,0.8,29.9-0.1c8.8-0.8,17.7-1.6,26.5-2.5c3.5-0.3,7.1-0.7,10.1-2.4c4-2.3,6.3-6.8,7.4-11.3
		c2.4-9.5,0.3-19.4-1.8-29c-2.4-11-4.8-21.9-7.3-32.9c-0.4-1.7-0.8-3.4-1.8-4.7c-1.1-1.4-2.7-2.3-4.3-3.1c-9.9-5-20.1-9.5-30.4-13.5
		c-2.9-1.1-5.9-2.2-8.9-1.5c-2.7,0.6-4.9,2.4-7.5,3.3c-5.2,1.8-11.3-0.5-16.1,2.2c-1.9,1.1-3.4,2.9-5.5,3.3c-3.1,0.5-7.1-2.2-9,0.3"
		/>
	<g>
		<path d="M231,41c-4-0.2-7.9-0.3-11.9-0.5c-2.9-0.1-6.2-0.7-9.1-0.2c-5.7,1.1-7.3,7.8-9.5,12.4c-5.7,11.7-12.7,25.2-12.9,38.5
			c-0.1,6.3,2,12.2,4.1,18c2.1,5.8,4.6,11.4,9.1,15.9c8.3,8.3,20.3,11.3,31.7,11.7c15,0.5,30.3-1.9,45.3-3.3
			c4.8-0.4,9.9-0.7,13.9-3.6c4.2-3.1,6.4-8.2,7.4-13.2c2.7-13.7-2.3-28.3-5.2-41.6c-1.5-6.8-2.6-13.9-4.6-20.6
			c-1.7-5.8-6.3-7.4-11.4-9.9c-6.8-3.3-13.7-6.3-20.6-9.1c-3.5-1.4-7.1-3.2-10.9-3.7c-3.5-0.4-5.8,0.7-8.9,2.2
			c-6.1,3-13.2,0.3-19,3.6c-1.1,0.6-2,1.7-3.2,2.3c-2.6,1.3-4,0.4-6.5,0.2c-2.2-0.2-3.5-0.1-5.1,1.4c-1.5,1.3,0.7,3.4,2.1,2.1
			c2-1.8,7.1,0.7,9.9-0.5c2.5-1.1,3.9-3.1,6.7-3.8c2.8-0.7,5.7-0.2,8.6-0.4c5.1-0.3,8.8-3.7,13.7-4.2c3.1-0.3,7.3,1.9,10.2,3
			c3.3,1.3,6.6,2.7,9.9,4.1c5.1,2.2,10.1,4.6,15.1,7c3,1.5,5.1,2.5,6.5,5.9c1.2,2.8,1.5,6.6,2.2,9.6c2.6,11.9,5.9,23.9,7.7,36
			c1.7,11.8,0.9,27.5-13.6,29.6c-11.8,1.7-24,2.4-35.9,3.4c-11.4,0.9-23.5,1.1-34.1-3.9c-11.2-5.3-15.8-14.7-19.5-25.9
			c-2.5-7.5-2.9-14.3-0.8-21.9c1.7-6.3,4.1-12.4,6.8-18.4c1.5-3.3,3-6.6,4.6-9.9c1.2-2.5,2.2-5.7,3.9-7.8c2.8-3.5,8.1-2.3,11.8-2.1
			c4,0.2,7.9,0.3,11.9,0.5C232.9,44.1,232.9,41.1,231,41L231,41z"/>
	</g>
</g>
<g>
	<path class="st1" d="M258.4,171.5c-0.6-0.6-2-0.7-2.2,0.2c1.2,0.9,2.5,1.6,3.8,2.4c-0.1-0.1-0.2-0.2-0.2-0.3
		C259.2,173.1,259,172.1,258.4,171.5z"/>
	<g>
		<path d="M259.5,170.4c-1.4-1.3-4.1-1.2-4.7,0.9c-0.2,0.7,0.1,1.3,0.7,1.7c1.2,0.9,2.5,1.6,3.8,2.4c1.5,0.8,3-1.1,1.8-2.4
			c-0.3-0.3-0.5-0.8-0.6-1.1C260.2,171.3,259.9,170.8,259.5,170.4c-1.3-1.4-3.4,0.7-2.1,2.1c0.7,0.8,0.9,1.8,1.6,2.6
			c0.6-0.8,1.2-1.6,1.8-2.4c-1.3-0.7-2.6-1.5-3.8-2.4c0.2,0.6,0.5,1.1,0.7,1.7c0,0.1-0.2,0.2-0.3,0.3c0,0-0.1,0-0.1,0
			c-0.1,0-0.1,0,0,0c0,0,0,0,0,0C258.8,173.8,260.9,171.7,259.5,170.4z"/>
	</g>
</g>
<g>
	<path class="st2" d="M367.5,167.4c-3.7-2-9.5,1.3-12.1-2.1c4.7-0.4,9.8-1.4,13.1-4.9c4.2-4.5,3.5-12.6-1.3-16.3
		c-3.1-2.4-7.3-2.9-11.1-4s-7.8-3.3-8.8-7.2c-0.6-2.4,0.1-4.9,0.9-7.2c3.7-11.1,8.5-21.9,14.3-32.2c0.6-1.1,1.3-2.5,0.8-3.7
		c-0.4-1-1.6-1.5-2.6-1.9c-4-1.3-8.1-1.9-12.3-1.9c-1,0-2.1,0.1-2.9,0.7c-1.9,1.3-1.6,4.2-1.3,6.5c0.9,8.4-3.3,17.1-10.4,21.7
		c-1.7,1.1-3.9,2.9-2.9,4.7c0.4,0.8,1.3,1.1,2,1.6c3.8,2.7,3.4,8.5,1.5,12.8s-4.9,8.4-4.8,13c0,1,0.2,2.1,1.1,2.7
		c0.6,0.4,1.3,0.5,1.9,0.6c3.2,0.3,6.4,0.7,9.6,1c-7.1,6.4-14.9,14.4-13.8,23.9c0.1,1.3,0.4,2.5,0,3.7c-0.5,1.5-2,2.5-3.5,3.2
		c-8.1,4.1-17.5,5.7-26.5,4.4c-1.3-0.2-2.7-0.4-3.8-1.2c-2.4-1.7-2.6-5-2.7-7.9c-0.1-3.5,0.2-7.7,3.3-9.5c2.9-1.7,6.5-0.2,9.8,0
		c9.4,0.7,16.1-8.6,20.9-16.7c0.5-0.8,1-1.7,0.8-2.7c-0.2-1.7-2.3-2.4-4.1-2.8c-10.5-1.9-21.2-2.7-31.8-2.4c-1.8,0-3.6,0.1-5.1,1
		c-1.7,0.9-2.7,2.7-3.7,4.3c-4.3,7-8.5,14-12.8,21c-1.1,1.7-2.2,3.6-3.9,4.6c-1,0.6-2.1,0.8-3.2,0.6c2.1,1,4.3,1.7,6.6,2.3
		c1.2,0.3,2.5,0.5,3.6,0c3.3-1.5,2.3-7.8,5.8-8.8c1.9,4.1,2.3,8.8,1.2,13.1c-0.3,1-0.6,2.2,0,3.1c0.5,0.8,1.4,1,2.2,1.5
		c2,1.3,2.5,4,4,6c-1.9,1-4.3,0.9-6-0.3c-2-1.4-3-3.9-5.1-5.1c-2.5-1.4-5.6-0.6-8.4-0.7c-10-0.1-17.9-11-27.8-9.6
		c4.4-5.1,10.5-8.6,17.1-9.8c1.7-0.3,3.4-0.5,4.8-1.5c1.4-1,2.1-3.2,1-4.4c-0.4-0.5-1-0.7-1.6-1c-5.5-2.1-12-1.8-17.3,0.9
		c-2.8,1.4-6.4,3.4-8.6,1.1c-2.3-2.4,0.6-6.4,3.8-7.6c8-2.8,17.4,2,25.2-1.3c1.8-0.8,3.5-2.1,4.1-4c0.6-1.9-0.4-4.3-2.3-4.7
		c-0.9-0.2-1.9,0-2.7-0.5c-2.8-1.9,3.6-5.9,2-8.9l-55.9-4.5c-4,7.1-9.1,13.6-15.1,19.2c3.1,1,6.1,2,9.2,3c1.3,0.4,3,1.2,3,2.7
		c0,0.7-0.4,1.2-0.7,1.8c-1.9,2.9-3.8,5.8-5.8,8.7c-1.9-1.1-3.7-2.1-5.6-3.2l1.5,12.4c0.1,1,0.3,2.1,0.8,3c1.1,1.9,3.5,2.4,5.6,2.8
		L260,192c2.6,0.5,5.2,1,7.6,2.1c5.4,2.7,8.6,8.4,13.6,11.9c6.8,4.7,15.8,4.4,23.8,2.5c8-1.9,15.6-5.3,23.8-6.3
		c8.9-1.1,18,0.7,26.8-1.1c2.8-0.6,5.7-1.5,7.6-3.7c1.4-1.5,2.1-3.5,2.7-5.5c1.5-4.7,2.9-9.4,3.9-14.2
		C370.6,174,370.8,169.2,367.5,167.4z M341,186.3c-0.5,1.5-2.2,2.1-3.7,2.7c-3.8,1.5-7.3,3.6-10.4,6.1c-0.3,0.3-0.7,0.6-1.1,0.9
		c-1.9,1.7-3.7,3.7-5.3,5.8c-1,1.3-2,2.8-3.6,3.1c-3.2,0.6-4.9-3.8-7.9-5c-2.6-1-5.5,0.6-8,1.9c-2.5,1.3-6,2.2-7.9,0.1
		c-1.1-1.2-1.2-2.9-1.1-4.6c-1.9-3.1,0.8-8.6,5.7-7.7c8.6,1.5,17.1-2.3,25.7-2.9c3.3-0.2,4.8,2.2,4.8,4.7c4-1,7.8-2.6,10.3-5.8
		c0.9-1.1,1.5-2.4,1.9-3.8c0.1,0.2,0.1,0.4,0.2,0.7C341,183.8,341.5,185.1,341,186.3z"/>
	<g>
		<path d="M367.9,166c-3.3-1.3-8.9,0.9-11.4-1.7c-0.4,0.9-0.7,1.7-1.1,2.6c5.9-0.6,12.6-1.9,15.8-7.6c2.5-4.4,1.9-10.5-1.3-14.4
			c-4.9-6-15.4-3.6-19.7-9.6c-3.5-4.9,0.4-12,2.3-16.9c2.1-5.4,4.4-10.6,7-15.8c2-3.9,9-11.9,3.1-15.3c-3.9-2.3-15.5-4.7-18.9-0.6
			c-1.4,1.7-1.2,4.1-1,6.2c0.3,5-0.4,9.7-3,14.1c-2.2,3.8-5.4,5.4-8.5,8.3c-1.5,1.4-2.7,3.3-1.6,5.3c0.7,1.3,2.2,1.7,3.1,2.7
			c2.3,2.5,1.7,6.5,0.7,9.3c-1.5,4.1-4.2,7.6-5,11.9c-1.6,9,7.3,7.7,13.9,8.4c-0.4-0.9-0.7-1.7-1.1-2.6c-4.6,4.2-9.3,8.7-12.1,14.3
			c-1.1,2.2-1.8,4.5-2.1,7c-0.5,4.3,0.5,7.9-4.2,10.1c-6.8,3.1-17.7,6-25.1,3.3c-4.2-1.5-5-7.4-3.8-11.3c0.5-1.6,2.9-4.4,4.6-4.9
			c0.9-0.3,2.8,0.3,3.8,0.4c1.4,0.2,2.9,0.5,4.3,0.4c5.1-0.1,9.5-3,12.9-6.5c3-3.1,8.9-9.4,8.9-14c0-4.7-6.5-4.9-9.8-5.4
			c-7.6-1.1-15.2-1.7-22.9-1.7c-6.7,0-11,0.1-14.9,6.1c-2.4,3.7-4.6,7.5-6.9,11.3c-2.3,3.7-6.6,14-11.8,14.2c-1.4,0-2.2,2.2-0.8,2.8
			c3.2,1.4,8.1,4,11.7,2.3c3.6-1.8,2.4-7.2,5.8-8.8c-0.7-0.3-1.5-0.6-2.2-0.9c1.1,2.7,1.9,5.6,1.7,8.6c-0.1,2.2-1.3,4.6-0.7,6.9
			c0.3,1.3,0.7,1.5,1.8,2.5c2.2,2,3.1,3.6,4.7,6.1c0.3-0.7,0.6-1.5,0.9-2.2c-5.5,2.2-7.6-5-12.3-6c-4.7-1-8.9,0.3-13.6-1.7
			c-7-3.1-13-8.6-21.1-7.9c0.4,0.9,0.7,1.7,1.1,2.6c5-5.4,10.6-8,17.7-9.7c3-0.7,7-2.6,6.1-6.5c-0.9-3.8-6.8-4.3-9.9-4.5
			c-2.8-0.2-5.7,0.2-8.4,1.1c-1.7,0.6-10.5,5.9-10,0.3c0.2-2.5,5.7-3.3,7.3-3.4c1.6-0.1,3.2,0,4.8,0.1c3.2,0.2,6.4,0.8,9.7,0.7
			c4.2-0.2,9.9-1.5,11.5-6c1.2-3.3-0.6-5.2-3-6.9c-2.8-2-1.4-1.8-0.2-4.4c0.6-1.4,0.9-2.5,0.4-4c-0.2-0.7-0.8-1-1.4-1.1
			c-18.6-1.5-37.3-3-55.9-4.5c-0.5,0-1,0.3-1.3,0.7c-4.1,7-9,13.3-14.8,18.9c-0.8,0.8-0.4,2.2,0.7,2.5c2.5,0.8,10.4,1.9,10.5,5.3
			c0,1-2.4,3.6-2.9,4.4c-1,1.5-1.9,2.9-2.9,4.4c0.7-0.2,1.4-0.4,2.1-0.5c-1.9-1.1-3.7-2.1-5.6-3.2c-0.9-0.5-2.4,0.1-2.3,1.3
			c0.6,4.7,0.1,11.6,2.3,15.8c1.8,3.4,6.1,3.8,9.5,4.4c12,2.2,24.1,4.4,36.1,6.6c5.6,1,11.2,2.1,16.8,3.1c5.6,1,11.1,1.9,15.5,5.9
			c3.9,3.5,6.9,7.8,11.7,10.1c4.4,2.1,9.4,2.7,14.2,2.4c12.2-0.8,23.1-7.2,35.3-7.8c10.1-0.5,27.7,3.5,33.5-7.8
			c2.8-5.5,4.5-12.9,5.4-18.9c0.6-4.1,0.3-7.9-3.2-10.5c-1.6-1.1-3.1,1.5-1.5,2.6c4.7,3.4,0.6,13.2-0.7,17.5c-0.8,2.6-1.4,5.5-2.7,8
			c-2.4,4.5-6.8,5.5-11.5,5.9c-10.9,1.1-21.3-0.6-32,2.4c-10.5,2.9-21.7,8.1-32.7,4.6c-9-2.9-12.9-12.8-22-15.6
			c-7.5-2.3-15.7-3-23.4-4.5c-11.2-2-22.3-4.1-33.5-6.1c-2.9-0.5-5.8-0.9-8.7-1.6c-5.6-1.5-4.9-11.7-5.5-16.5
			c-0.8,0.4-1.5,0.9-2.3,1.3c1.9,1.1,3.7,2.1,5.6,3.2c0.7,0.4,1.6,0.1,2.1-0.5c1.9-2.8,8-8.9,6.4-12.6c-1.6-3.7-9.7-4.7-12.9-5.8
			c0.2,0.8,0.4,1.7,0.7,2.5c4.9-4.8,9.3-10,13-15.8c1.9-3,0.1-3.1,3.5-2.8c6.2,0.5,12.4,1,18.5,1.5c11.6,0.9,23.2,1.9,34.8,2.8
			c-0.5-0.4-1-0.7-1.4-1.1c0.9,3-4,5.2-2.6,8.4c0.5,1.2,1.4,1,2.2,1.7c0.3,0.1,0.7,0.2,1.1,0.2c0.1,1.8,0.1,3.6,0.2,5.4
			c-0.8,1.3-5.5,1.7-6.7,1.7c-6.8,0.3-22.3-4.4-25,5.6c-0.7,2.8,0.9,5.5,3.8,6c4.8,0.8,9.8-3.9,14.6-4.3c1.6-0.2,3.1-0.1,4.6,0.1
			c1,0.1,2,0.3,3,0.6c0,1.3-0.1,2.7-0.1,4c-0.7,1-6.4,1.5-7.7,2c-4.9,1.9-9,4.9-12.5,8.7c-0.8,0.9-0.3,2.7,1.1,2.6
			c9.4-0.8,16,7.6,24.9,9.3c2,0.4,3.9,0.2,5.9,0.2c3.9,0,5.5,1.3,8,4c2.5,2.7,5.6,3.6,9.1,2.1c0.8-0.3,1.5-1.3,0.9-2.2
			c-1-1.5-1.6-3.3-2.7-4.7c-1.5-1.9-3.1-2.6-3-5.5c0-4.9,0.6-8.4-1.4-13.1c-0.4-0.9-1.2-1.3-2.2-0.9c-1.7,0.8-2.4,1.9-3.1,3.6
			c-0.4,0.9-0.5,2.3-1,3c-2.5,3.8-7.4,1.1-10.3-0.2c-0.3,0.9-0.5,1.9-0.8,2.8c6.7-0.2,9.3-7.4,12.4-12.4c2.1-3.5,4.3-7,6.4-10.5
			c1.1-1.7,2-3.7,3.2-5.3c2.1-2.8,4.5-3.3,7.7-3.4c9.3-0.2,18.6,0.4,27.7,1.9c2.1,0.3,5.6,0.2,5.1,3.7c-0.2,1.1-1.7,2.8-2.3,3.7
			c-2.3,3.5-4.8,6.8-8.2,9.3c-3.8,2.8-7.5,3.2-12.1,2.6c-2.5-0.4-5.2-0.8-7.6,0.6c-4.3,2.6-4.4,9-3.9,13.3
			c1.5,12.8,20.9,8.8,29.2,5.9c6-2.1,10.5-3.9,10-10.7c-0.6-9.7,6.7-16.8,13.4-22.8c1.1-1,0.1-2.4-1.1-2.6c-2.4-0.2-5.4-0.1-7.7-0.8
			c-5.1-1.6-3.3-4.9-1.7-8.6c1.5-3.2,3.4-6.2,4.1-9.8c0.4-2.3,0.5-4.8-0.4-7.1c-1.2-2.9-5.7-4.6-2-7.4c5.2-4,9.1-8.7,10.6-15.2
			c0.4-1.6,0.6-3.2,0.6-4.8c0.1-1.6-0.7-3.8-0.3-5.4c1-4.7,6.6-3.3,9.7-2.8c2.6,0.4,4.8,0.4,5.7,3c1.1,3.4-4,9.9-5.5,13.2
			c-1.9,4-3.7,8.1-5.3,12.3c-2.2,5.7-6.8,14-2.7,19.7c4.3,6,12.2,4.8,17.9,8.3c4.4,2.6,5.9,8.6,3.4,13.1c-2.6,4.6-8.4,5.6-13.2,6.1
			c-1.2,0.1-2,1.6-1.1,2.6c3.6,3.6,8.5,0.8,12.7,2.5C368.9,169.6,369.6,166.7,367.9,166z"/>
		<path d="M339.7,185.5c-1.1,1.8-4.4,2.6-6.4,3.6c-2.1,1-4,2.3-5.9,3.7c-2.6,2-4.9,4.2-7,6.7c-1.7,2.1-2.4,4.8-6,2.9
			c-0.9-0.5-1.6-1.7-2.5-2.3c-1.9-1.5-3.9-2.2-6.3-1.7c-4,0.8-9.7,6.8-12,0.3c0.2,0.5-0.2-1.9-0.2-2c-0.4-4.8,1.7-5.4,6.1-5.2
			c3.7,0.2,7.1-0.1,10.7-0.8c3.3-0.6,16.1-5.2,16.6,0.9c0.1,1,0.9,1.7,1.9,1.4c6.2-1.6,10.8-4.5,13.3-10.6c-1,0-1.9,0-2.9,0
			c0.3,1.2,0.7,2.2,0.5,3.5c-0.3,1.9,2.6,2.7,2.9,0.8c0.3-1.9-0.1-3.2-0.5-5.1c-0.4-1.6-2.4-1.3-2.9,0c-2,5.1-6.1,7.2-11.2,8.5
			c0.6,0.5,1.3,1,1.9,1.4c-0.3-3.7-2.4-6.2-6.3-6.2c-7.2-0.1-14.1,3.3-21.4,3.2c-4.3,0-8.7-1.4-11.2,3.2c-1.4,2.6-0.9,7.4,0.4,10
			c1.9,3.6,6,3.3,9.2,2.1c2.7-1.1,5.4-3.6,8.7-2c1.2,0.5,2.1,2,3,2.8c1.1,0.9,2.2,1.8,3.7,1.9c4.8,0.4,7.9-6.6,10.9-9.3
			c3.3-2.9,6.9-4.9,10.8-6.6c2-0.9,3.4-1.5,4.6-3.4C343.3,185.4,340.7,183.9,339.7,185.5z"/>
	</g>
</g>
<circle class="st3" cx="233.3" cy="73.5" r="16.9"/>
<circle class="st3" cx="260" cy="73.5" r="16.9"/>
<g>
	<path class="st1" d="M281.9,125.2c4.1,0,4.6-8,3.1-10.9c-1.7-3.4-4.9-3.7-8.3-4.1c-11.6-1.3-23.5-0.8-35.2-1.9
		c-4-0.4-33-6.3-24.3,4.3c2.9,3.6,8.4,3.3,12.7,5.1c2.5,1,4.6,2.7,7,4c5.9,3.2,12.9,3.4,19.7,3.5
		C264.9,125.3,273.4,125.3,281.9,125.2z"/>
	<g>
		<path d="M282.3,126.7c4.1-0.6,5.1-5.4,4.9-8.9c-0.2-4.5-2.7-7.5-7.1-8.5c-13.7-3.2-28.4-0.8-42.2-2.9c-6.2-0.9-15.5-3.5-21.4-0.5
			c-2.2,1.1-2.9,3-2,5.3c1.8,4.8,7.2,5.8,11.6,6.9c4.4,1.1,7.7,3.9,11.8,5.7c3.7,1.6,7.8,2.3,11.8,2.6c10.7,0.8,21.6,0.3,32.2,0.3
			c1.9,0,1.9-3,0-3c-8.5,0-17,0.1-25.5,0c-4.3-0.1-8.8-0.1-13-1.2c-3.7-0.9-6.7-2.8-10-4.7c-2.8-1.6-5.5-2.3-8.7-3.1
			c-2.1-0.5-7.9-2-7.6-4.9c0.3-2.7,6.1-2,8.2-1.9c7.6,0.3,15,2,22.5,2.4c8,0.4,16.1,0.4,24.1,1c3.7,0.3,10-0.1,11.8,4.1
			c1,2.3,0.8,7.9-2.3,8.3C279.6,124,280.4,126.9,282.3,126.7z"/>
	</g>
</g>
<g>
	<path class="st1" d="M232.6,69c-0.4,3.2-0.8,6.3-1.2,9.5c-0.3,2.4-0.2,5.7,2.2,6.4c1.7,0.5,3.5-0.8,4.7-2.2c2.3-2.6,4.1-5.9,4-9.3
		c-0.1-3.5-2.7-7-6.2-7.2c-0.6,0-1.3,0-1.9,0.4c-1.3,0.8-1.5,2.5-1.6,4.1c-0.1,3.3,0.1,6.6,0.4,9.8c0.2,1.7,1.4,4,2.9,3.2
		c0.5-0.2,0.8-0.7,1-1.2c2.1-3.6,3.5-7.6,4.2-11.7c0.2-1.3,0.4-2.7-0.3-3.9c-0.6-1.2-2.3-1.9-3.3-1.1c-0.7,0.5-0.9,1.5-1,2.4
		c-0.5,4.2-0.5,8.5,0.1,12.7c1.8-4,2.3-8.5,1.3-12.8c-2.7,2.5-1,7.5-3.6,10.1c-0.7-4.3-1-8.6-1-12.9c-0.9,6.4-0.6,12.9,0.7,19.1
		c1.4-0.9,1.3-3,1-4.6"/>
	<g>
		<path d="M231.1,69c-0.6,4.3-2.6,10.4-0.8,14.6c1.3,3,4.6,3.6,7.2,1.8c6.2-4.2,9.6-16.6,0.9-20.1c-3.1-1.3-6.2-0.2-7.1,3.1
			c-0.6,2.2-0.3,4.9-0.2,7.2c0.1,2.3,0,5.1,1,7.2c1.1,2.4,3.6,3.4,5.6,1.3c3-3.2,5-10.4,5.1-14.6c0.1-3-2.8-7.3-6.1-4.8
			c-1.5,1.1-1.6,3.3-1.7,5c-0.3,3.8-0.2,7.5,0.3,11.3c0.2,1.2,2.1,2.3,2.8,0.8c1.9-4.6,2.4-9.1,1.5-14c-0.2-1.1-1.8-1.5-2.5-0.7
			c-2.5,3-1.3,7.2-3.6,10.1c0.8,0.2,1.7,0.4,2.5,0.7c-0.6-4.2-0.9-8.3-0.9-12.5c0-2-2.8-1.9-3,0c-0.8,6.6-0.5,13,0.8,19.5
			c0.2,1.1,1.8,1.4,2.5,0.7c1.6-1.6,1.7-3.5,1.4-5.7c-0.2-1.9-3.2-1.9-3,0c0.2,1.3,0.4,2.5-0.6,3.5c0.8,0.2,1.7,0.4,2.5,0.7
			c-1.3-6.2-1.4-12.4-0.7-18.7c-1,0-2,0-3,0c0,4.5,0.3,8.9,1,13.3c0.2,1.1,1.8,1.5,2.5,0.7c2.5-3,1.2-7.3,3.6-10.1
			c-0.8-0.2-1.7-0.4-2.5-0.7c0.8,4,0.4,7.9-1.2,11.7c0.9,0.3,1.9,0.5,2.8,0.8c-0.4-2.8-0.6-5.6-0.5-8.5c0-0.5-0.1-4.5,0.4-4.7
			c2.3-1.2,1.1,4.6,0.9,5.4c-0.4,1.5-2.1,8.4-3.5,8.6c-1.9,0.3-1.6-8-1.6-9c0-2-0.4-3.2,1.4-4.3c2.1-1.3,3.7,0.5,4.6,2.5
			c1.6,3.4,0,7.1-2.2,9.8c-1.2,1.6-4.1,3.5-5,0.4c-0.3-1,0-2.3,0.1-3.4c0.4-2.9,0.8-5.9,1.1-8.8C234.4,67.1,231.4,67.1,231.1,69
			L231.1,69z"/>
	</g>
</g>
<g>
	<path class="st1" d="M256.2,68.6c-4.4,2.5-5.1,8.5-5.3,13.6c0,0.7,0,1.4,0.4,1.9c0.5,0.8,1.6,0.9,2.5,1c2.1,0.1,4.3,0.2,6.4,0.1
		c1,0,2.1-0.1,3-0.5c2-1,2.6-3.6,2.9-5.8c0.2-1.6,0.5-3.3,0.7-4.9c0.2-1.3,0.3-2.8-0.5-3.8c-0.8-1-2.2-1.2-3.5-1.3
		c-1.8-0.2-3.6-0.3-5.4-0.5c-0.6-0.1-1.3-0.1-1.8,0.4c-0.4,0.4-0.5,1-0.5,1.6c-0.2,4.7-0.5,9.4-0.7,14.1c-0.5-5,1.6-10.1,5.4-13.4
		c0.4,3.4,0.6,6.9,0.7,10.4c0.8-2,2.1-3.8,3.7-5.2c0.4,2.5,0.2,5.1-0.7,7.5c0-5.3,0-10.7,0-16c0.6,2.9-1.5,6.2-4.4,6.8
		c-0.4,0.1-0.9,0.1-1.2,0c-0.3-0.2-0.5-0.5-0.7-0.7c-1.3-2-2-4.4-1.8-6.7c0.1,5.9,0.9,11.7,2.4,17.4c-1.2,0.2-2.2-1.1-1.9-2.3
		c0.3-1.1,1.4-1.9,2.6-2.1s2.3,0.1,3.5,0.4c-2.2-2.2-3.3-5.5-2.6-8.6c0,2.3,0,4.7-0.1,7c0,1.4,0.6,3.4,2,3c-2.9,0.2-5.8,0-8.7-0.4
		c-0.3,0-0.6-0.1-0.9-0.3c-0.7-0.6-0.1-1.8,0.8-2.2c0.8-0.4,1.8-0.5,2.5-1.1c0.5-0.5,0.7-1.3,0.8-2c0.6-2.6,1.9-5,3.5-7.1"/>
	<g>
		<path d="M255.5,67.3c-2.8,1.8-4.4,4.5-5.2,7.7c-0.6,2.6-1.8,7.3-0.3,9.7c1.6,2.7,6.4,2,9,2c3.3,0,6-0.4,7.6-3.6
			c1.4-2.9,2.2-8.1,1.8-11.3c-0.4-3.2-2.8-4-5.6-4.4c-2.7-0.4-7.8-1.8-9,1.7c-0.7,1.9-0.3,4.9-0.4,6.9c-0.1,2.8-0.3,5.7-0.4,8.5
			c1,0,2,0,3,0c-0.3-4.8,1.4-9.1,4.9-12.3c-0.9-0.4-1.7-0.7-2.6-1.1c0.4,3.4,0.6,6.9,0.7,10.4c0,1.4,2.2,2.2,2.8,0.8
			c0.8-1.9,1.9-3.5,3.5-4.9c-0.9-0.4-1.7-0.7-2.6-1.1c0.3,2.5,0.1,4.7-0.7,7.1c1,0.1,2,0.3,2.9,0.4c0-5.3,0-10.7,0-16c-1,0-2,0-3,0
			c0.2,2.2-0.3,4.4-2.8,4.3c-1.4,0.4-2.1-0.2-2.1-1.9c-0.3-1-0.4-2.1-0.3-3.1c-1,0-2,0-3,0c0.2,6,1,11.9,2.4,17.8
			c0.5-0.6,1-1.3,1.4-1.9c1.2-1.3,2.4-1.6,3.8-1c1.5,0.3,2.5-1.4,1.5-2.5c-1.8-2-2.6-4.4-2.3-7.1c-1-0.1-2-0.3-2.9-0.4
			c0,3.3-1.6,11.1,3.4,11.6c0-1,0-2,0-3c-2.9,0.1-6.4,0.3-9.2-0.6c0.3,0.3,0.7,0.7,1,1c0.1,0.3,3.4-2.7,3.7-3.2
			c1.3-2.8,1.8-5.4,3.8-8c1.2-1.5-1.4-3-2.6-1.5c-1.8,2.4-2.3,4.9-3.7,7.4c-1,1.9-4.1,2.2-4.4,4.5c-0.6,4.6,8.8,3.4,11.3,3.3
			c2-0.1,1.9-2.8,0-3c-0.9-0.1-0.4-7.8-0.4-8.6c0-1.6-2.7-2.1-2.9-0.4c-0.5,3.8,0.4,7.1,3,10c0.5-0.8,1-1.7,1.5-2.5
			c-2.7-0.6-6.6-0.9-7.7,2.4c-0.8,2.5,0.9,4.2,3.2,4.5c1,0.1,1.6-1.1,1.4-1.9c-1.4-5.6-2.1-11.2-2.3-17c-0.1-1.9-3-1.9-3,0
			c0,3.1,1.1,9.7,5.5,9c3.8-0.6,6-4.8,5.7-8.3c-0.2-1.9-3-2-3,0c0,5.3,0,10.7,0,16c0,1.7,2.4,2,2.9,0.4c0.9-2.7,1.1-5.1,0.8-7.9
			c-0.2-1.3-1.5-2-2.6-1.1c-1.7,1.6-3,3.3-4,5.5c0.9,0.3,1.9,0.5,2.8,0.8c-0.1-3.5-0.3-6.9-0.7-10.4c-0.1-1.3-1.5-2-2.6-1.1
			c-4.1,3.7-6.2,8.9-5.8,14.4c0.1,1.9,2.9,1.9,3,0c0.1-2.6,0.3-5.2,0.4-7.8c0.1-1.7-0.5-5.9,1.1-6.8c0.7-0.3,2.7,0.2,3.4,0.3
			c1.7,0.2,4,0.9,4.6,2.8c0.5,1.5-0.7,5.4-1,7c-0.7,3.4-3.1,3.8-6.1,3.8c-2.5,0-5.4,0.5-5.8-2.5c-0.6-3.8,1.2-9.3,4.5-11.4
			C258.6,68.9,257.1,66.3,255.5,67.3L255.5,67.3z"/>
	</g>
</g>
</svg>
